<svg xmlns="http://www.w3.org/2000/svg" viewBox="0 0 1920 1080" role="img" aria-label="Kunming film street corner background">
  <defs>
    <linearGradient id="night4" x1="0" y1="0" x2="1" y2="1">
      <stop offset="0" stop-color="#05070b"/>
      <stop offset="0.48" stop-color="#11212a"/>
      <stop offset="1" stop-color="#34170d"/>
    </linearGradient>
    <radialGradient id="lamp4" cx="76%" cy="32%" r="45%">
      <stop offset="0" stop-color="#ffbe78" stop-opacity="0.72"/>
      <stop offset="0.42" stop-color="#ff7c4f" stop-opacity="0.24"/>
      <stop offset="1" stop-color="#ff7c4f" stop-opacity="0"/>
    </radialGradient>
    <radialGradient id="cyan4" cx="64%" cy="54%" r="34%">
      <stop offset="0" stop-color="#6fc7d8" stop-opacity="0.32"/>
      <stop offset="1" stop-color="#6fc7d8" stop-opacity="0"/>
    </radialGradient>
    <filter id="blur4" x="-20%" y="-20%" width="140%" height="140%">
      <feGaussianBlur stdDeviation="12"/>
    </filter>
  </defs>
  <rect width="1920" height="1080" fill="url(#night4)"/>
  <rect width="1920" height="1080" fill="url(#lamp4)"/>
  <rect width="1920" height="1080" fill="url(#cyan4)"/>
  <rect x="-80" width="790" height="1080" fill="#030406" opacity="0.72"/>
  <path d="M620 220 L1040 170 L1040 760 L620 820 Z" fill="#101923"/>
  <path d="M1080 150 L1830 255 L1830 800 L1080 760 Z" fill="#211815"/>
  <g opacity="0.72">
    <rect x="710" y="300" width="210" height="210" fill="#ffd694" opacity="0.58"/>
    <rect x="1160" y="300" width="185" height="170" fill="#ffb56f" opacity="0.48"/>
    <rect x="1410" y="330" width="255" height="205" fill="#ffd9a2" opacity="0.42"/>
  </g>
  <g fill="#ffd08d" opacity="0.9">
    <circle cx="790" cy="195" r="8"/>
    <circle cx="900" cy="185" r="6"/>
    <circle cx="1130" cy="220" r="7"/>
    <circle cx="1270" cy="245" r="6"/>
    <circle cx="1420" cy="260" r="8"/>
    <circle cx="1580" cy="282" r="6"/>
    <circle cx="1740" cy="310" r="7"/>
  </g>
  <path d="M0 775 C420 700 950 700 1920 780 L1920 1080 L0 1080 Z" fill="#141010"/>
  <path d="M420 910 C860 790 1330 790 1920 890 L1920 1080 L260 1080 Z" fill="#2a1712"/>
  <g stroke="#ff9c73" stroke-width="4" opacity="0.3">
    <path d="M0 890 C560 810 1150 830 1920 892"/>
    <path d="M0 1000 C560 912 1120 930 1920 992"/>
  </g>
  <ellipse cx="1320" cy="805" rx="370" ry="112" fill="#513121"/>
  <ellipse cx="1320" cy="790" rx="330" ry="85" fill="#231719"/>
  <ellipse cx="1320" cy="775" rx="240" ry="48" fill="#ff9c73" opacity="0.18"/>
  <g filter="url(#blur4)" opacity="0.72">
    <circle cx="1280" cy="725" r="150" fill="#ff9c73"/>
    <circle cx="1510" cy="795" r="110" fill="#6fc7d8"/>
  </g>
  <g opacity="0.32" fill="#fff0d5">
    <circle cx="610" cy="640" r="3"/>
    <circle cx="760" cy="610" r="2.5"/>
    <circle cx="980" cy="560" r="2.5"/>
    <circle cx="1540" cy="620" r="3"/>
    <circle cx="1710" cy="670" r="2.5"/>
  </g>
  <rect width="1920" height="1080" fill="#080404" opacity="0.18"/>
  <rect width="1920" height="1080" fill="none" stroke="#f2c18c" stroke-opacity="0.05" stroke-width="26"/>
</svg>
